<svg width="256" height="256" viewBox="0 0 256 256" fill="none" xmlns="http://www.w3.org/2000/svg">
<rect x="28" y="78" width="200" height="100" rx="8" fill="#444444"/>
<circle cx="186" cy="120" r="32" fill="#333333"/>
<circle cx="186" cy="120" r="12" fill="#222222"/>
<circle cx="70" cy="120" r="32" fill="#333333"/>
<circle cx="70" cy="120" r="12" fill="#222222"/>
<path d="M102 120C102 137.673 87.6731 152 70 152C52.3269 152 38 137.673 38 120C38 102.327 52.3269 88 70 88C87.6731 88 102 102.327 102 120ZM44.4 120C44.4 134.138 55.8615 145.6 70 145.6C84.1385 145.6 95.6 134.138 95.6 120C95.6 105.862 84.1385 94.4 70 94.4C55.8615 94.4 44.4 105.862 44.4 120Z" fill="#111111"/>
<path d="M218 120C218 137.673 203.673 152 186 152C168.327 152 154 137.673 154 120C154 102.327 168.327 88 186 88C203.673 88 218 102.327 218 120ZM160.4 120C160.4 134.138 171.862 145.6 186 145.6C200.138 145.6 211.6 134.138 211.6 120C211.6 105.862 200.138 94.4 186 94.4C171.862 94.4 160.4 105.862 160.4 120Z" fill="#111111"/>
<circle cx="44" cy="162" r="8" fill="#111111"/>
<circle cx="44" cy="162" r="7.5" fill="#111111" stroke="#00FF47"/>
<circle cx="192" cy="162" r="8" fill="#111111"/>
<circle cx="64" cy="162" r="8" fill="#111111"/>
<circle cx="120" cy="92" r="4" fill="#333333"/>
<circle cx="136" cy="92" r="4" fill="#333333"/>
<circle cx="120" cy="104" r="4" fill="#333333"/>
<circle cx="136" cy="104" r="4" fill="#333333"/>
<circle cx="120" cy="116" r="4" fill="#333333"/>
<circle cx="136" cy="116" r="4" fill="#333333"/>
<circle cx="120" cy="128" r="4" fill="#333333"/>
<circle cx="136" cy="128" r="4" fill="#333333"/>
<circle cx="212" cy="162" r="8" fill="#111111"/>
<rect x="119" y="138" width="2" height="16" rx="1" fill="black"/>
<rect x="117" y="149" width="6" height="2" rx="1" fill="white"/>
<rect x="135" y="138" width="2" height="16" rx="1" fill="black"/>
<rect x="120" y="161" width="16" height="2" rx="1" fill="black"/>
<rect x="133" y="143" width="6" height="2" rx="1" fill="white"/>
<rect x="127" y="159" width="2" height="6" rx="1" fill="white"/>
</svg>
