<svg width="256" height="256" viewBox="0 0 256 256" fill="none" xmlns="http://www.w3.org/2000/svg">
<path d="M23.5555 52C23.5555 49.7909 25.3464 48 27.5555 48H179.556C181.765 48 183.556 49.7909 183.556 52V204C183.556 206.209 181.765 208 179.556 208H27.5555C25.3464 208 23.5555 206.209 23.5555 204V52Z" fill="#333333"/>
<circle cx="103.556" cy="128" r="60" fill="#222222"/>
<ellipse cx="103.556" cy="128" rx="20" ry="20" fill="#111111"/>
<path d="M28 120.111C28 119.559 28.4477 119.111 29 119.111H47C47.5523 119.111 48 119.559 48 120.111V138.111C48 138.663 47.5523 139.111 47 139.111H29C28.4477 139.111 28 138.663 28 138.111V120.111Z" fill="white"/>
<path d="M59.1111 105.333C59.1111 103.124 60.902 101.333 63.1111 101.333H161.778C163.987 101.333 165.778 103.124 165.778 105.333V204C165.778 206.209 163.987 208 161.778 208H63.1111C60.902 208 59.1111 206.209 59.1111 204V105.333Z" fill="#191919"/>
<ellipse cx="112.444" cy="154.667" rx="40" ry="40" fill="#292929"/>
<ellipse cx="112.444" cy="154.667" rx="13.3333" ry="13.3333" fill="#111111"/>
<path d="M65.7778 189C65.7778 188.448 66.2255 188 66.7778 188H78.1111C78.6634 188 79.1111 188.448 79.1111 189V200.333C79.1111 200.886 78.6634 201.333 78.1111 201.333H66.7778C66.2255 201.333 65.7778 200.886 65.7778 200.333V189Z" fill="#222222"/>
<path d="M90.2222 69.7778C90.2222 67.5686 92.0131 65.7778 94.2222 65.7778H228.444C230.654 65.7778 232.444 67.5686 232.444 69.7778V204C232.444 206.209 230.654 208 228.444 208H94.2222C92.0131 208 90.2222 206.209 90.2222 204V69.7778Z" fill="#222222"/>
<ellipse cx="161.333" cy="136.889" rx="53.3333" ry="53.3333" fill="#333333"/>
<ellipse cx="161.333" cy="136.889" rx="17.7778" ry="17.7778" fill="#111111"/>
<path d="M152.444 182.333C152.444 181.781 152.892 181.333 153.444 181.333H169.222C169.775 181.333 170.222 181.781 170.222 182.333V198.111C170.222 198.663 169.775 199.111 169.222 199.111H153.444C152.892 199.111 152.444 198.663 152.444 198.111V182.333Z" fill="#FF4400"/>
</svg>
